<svg width="18" height="19" viewBox="0 0 18 19" fill="none" xmlns="http://www.w3.org/2000/svg">
<path fill-rule="evenodd" clip-rule="evenodd" d="M9.79268 10.2638C8.36075 11.6957 6.03915 11.6957 4.60723 10.2638C3.1753 8.83188 3.1753 6.51027 4.60723 5.07835C6.03915 3.64643 8.36075 3.64643 9.79268 5.07835C11.2246 6.51027 11.2246 8.83188 9.79268 10.2638ZM10.2331 11.6468C8.27283 13.1462 5.45724 12.9994 3.66442 11.2066C1.7118 9.25399 1.7118 6.08816 3.66442 4.13554C5.61704 2.18292 8.78286 2.18292 10.7355 4.13554C12.5282 5.92829 12.675 8.74371 11.1758 10.7039L14.7425 14.2706L13.7997 15.2134L10.2331 11.6468Z" fill="white"/>
</svg>
